<?xml version="1.0" encoding="utf-8"?>
<!-- Generator: Adobe Illustrator 19.2.1, SVG Export Plug-In . SVG Version: 6.00 Build 0)  -->
<!DOCTYPE svg PUBLIC "-//W3C//DTD SVG 1.1//EN" "http://www.w3.org/Graphics/SVG/1.1/DTD/svg11.dtd">
<svg version="1.1" id="Layer_1" xmlns="http://www.w3.org/2000/svg" xmlns:xlink="http://www.w3.org/1999/xlink" x="0px" y="0px"
	 width="22px" height="22px" viewBox="0 0 22 22" style="enable-background:new 0 0 22 22;" xml:space="preserve">
<style type="text/css">
	.st0{fill:#B6D2B4;}
</style>
<g>
	<path class="st0" d="M3,6.8l6.6-6.2C9.9,0.2,10.4,0,11,0c0.5,0,1,0.2,1.4,0.6L19,6.8c0.4,0.4,0.6,0.8,0.6,1.3c0,0.5-0.2,1-0.6,1.3
		s-0.9,0.6-1.4,0.6c-0.6,0-1.1-0.2-1.4-0.6l-3.1-3v13.6c0,0.5-0.2,1-0.6,1.4C12,21.8,11.5,22,11,22c-0.5,0-1-0.2-1.4-0.6
		C9.2,21.1,9,20.6,9,20.1V6.5L5.9,9.6C5.5,9.9,5,10.1,4.4,10.1c-0.6,0-1.1-0.2-1.4-0.6S2.4,8.7,2.4,8.2C2.4,7.6,2.6,7.2,3,6.8z"/>
</g>
</svg>
