<?xml version="1.0" encoding="utf-8"?>
<!-- Generator: Adobe Illustrator 19.2.1, SVG Export Plug-In . SVG Version: 6.00 Build 0)  -->
<!DOCTYPE svg PUBLIC "-//W3C//DTD SVG 1.1//EN" "http://www.w3.org/Graphics/SVG/1.1/DTD/svg11.dtd">
<svg version="1.1" xmlns="http://www.w3.org/2000/svg" xmlns:xlink="http://www.w3.org/1999/xlink" x="0px" y="0px"
	 width="1100.6px" height="995.9px" viewBox="0 0 1100.6 995.9" enable-background="new 0 0 1100.6 995.9" xml:space="preserve">
<g id="logo">
	<g>
		<g>
			<rect x="200.3" y="150" fill="#B5D2B4" width="75" height="75"/>
			<rect x="150.3" y="375" fill="#B5D2B4" width="75" height="75"/>
			<rect x="100.3" y="250" fill="#B5D2B4" width="75" height="75"/>
			<rect x="0.3" y="300" fill="#B5D2B4" width="25" height="25"/>
			<rect x="50.3" y="350" fill="#B5D2B4" width="50" height="50"/>
			<g>
				<rect x="500.3" y="200" fill="#B5D2B4" width="100" height="100"/>
				<path fill="#B5D2B4" d="M550.3,0c-111,0-208,60.3-259.9,150h59.9v75h-75v-45c-16,36.8-25,77.3-25,120
					c0,54.6,14.6,105.9,40.1,150h34.9v48.4c55,62.3,135.4,101.6,225,101.6c165.7,0,300-134.3,300-300S716,0,550.3,0z M375.3,100h25
					v25h-25V100z M700.3,300c0,55-45,100-100,100h-100v125c-55,0-100-44.8-100-100v-75h-75v-75h75v-25v-50c0-55,45-100,100-100h100
					c55,0,100,45,100,100V300z"/>
			</g>
		</g>
		<g>
			<path fill="#6D6F71" d="M72.8,761.6c0,9.3-2.9,16.9-8.6,22.7c-3.8,3.8-9,6.4-15.5,7.7c-3.7,0.7-9.7,1.1-17.8,1.1H5.4v53.1H0v-115
				h31.4C59,731.2,72.8,741.3,72.8,761.6z M5.4,736v52.3h21.9c13.3,0,22.2-1,26.7-3c8.7-3.8,13.1-11.9,13.1-24.2
				c0-13.9-7.1-21.9-21.3-24.2c-3.8-0.6-10-1-18.4-1H5.4z"/>
			<path fill="#6D6F71" d="M96.8,731.2h5.3v115h-5.3V731.2z"/>
			<path fill="#6D6F71" d="M159.2,787.4l-37.3-56.2h6.2l34.2,51.7l34.1-51.7h5.9l-36.8,56l39,59h-6.1L162.1,792l-36,54.2h-5.9
				L159.2,787.4z"/>
			<path fill="#6D6F71" d="M221.9,731.2h70.2v5.1h-64.8v47.5h51.4v5h-51.4v52.3h66.4v5.1h-71.8V731.2z"/>
			<path fill="#6D6F71" d="M316.8,731.2h5.4v109.9h61v5.1h-66.4V731.2z"/>
			<path fill="#6D6F71" d="M402.1,731.2h67.2v5.1h-61.8v47.5h49.1v5h-49.1v57.4h-5.4V731.2z"/>
			<path fill="#6D6F71" d="M495.2,791.8v54.4h-5.4v-115H528c12.7,0,22,1.8,28,5.4c7.6,4.7,11.4,12.9,11.4,24.6
				c0,14.6-6.9,24.1-20.8,28.3c9.7,1.9,15.1,8.5,16.2,19.8c0.1,0.5,0.2,5.5,0.2,14.9l0.2,21.9h-6.2v-25.8c0-3.1,0-5.6-0.1-7.4
				c-0.1-1.9-0.1-3.2-0.2-4.1c-1.2-7-4.2-11.8-9-14.2c-3.7-1.9-9.6-2.9-17.6-2.9H495.2z M530.7,787c20.8,0,31.2-8.4,31.2-25.3
				c0-14.2-6.5-22.5-19.4-24.8c-1.5-0.2-3.5-0.4-5.9-0.6c-2.5-0.2-5.3-0.2-8.6-0.2h-32.8V787H530.7z"/>
			<path fill="#6D6F71" d="M623.7,731.2h6.1l43.7,115h-5.3L653.3,807h-53.6l-15,39.2h-5.3L623.7,731.2z M651.4,802.2l-24.6-64.8
				l-25.1,64.8H651.4z M615.5,700.2c2.3,0,3.5,2.5,3.5,7.5c0,5.1-1.2,7.7-3.5,7.7c-2.2,0-3.4-2.6-3.4-7.7
				C612.2,702.7,613.3,700.2,615.5,700.2z M640.3,700c2.3,0,3.5,2.5,3.5,7.4c0,5.1-1.2,7.7-3.5,7.7c-2.3,0-3.5-2.6-3.5-7.7
				C636.8,702.5,638,700,640.3,700z"/>
			<path fill="#6D6F71" d="M693.6,731.2v72.3c0,27,12.1,40.5,36.2,40.5c12.3,0,21.5-3.7,27.7-11.2c5.7-6.9,8.5-16.7,8.5-29.3v-72.3
				h5.3v74.9c0,13.3-3.6,23.7-10.7,31.2c-7.4,7.6-17.6,11.4-30.7,11.4c-13.2,0-23.5-3.8-30.7-11.4c-7.1-7.3-10.7-17.7-10.7-31.2
				v-74.9H693.6z"/>
			<path fill="#6D6F71" d="M800.6,731.2h5.4v109.9h61v5.1h-66.4V731.2z"/>
			<path fill="#6D6F71" d="M885.9,731.2h70.2v5.1h-64.8v47.5h51.4v5h-51.4v52.3h66.4v5.1h-71.8V731.2z"/>
			<path fill="#6D6F71" d="M981.4,731.2h5.3v115h-5.3V731.2z"/>
			<path fill="#6D6F71" d="M1017.7,731.2h5.4l72.2,105.9V731.2h5.3v115h-5.3L1023,740.5v105.8h-5.3V731.2z"/>
		</g>
		<g>
			<g>
				<path fill="#6D6F71" d="M106,898.6h17.3c11.1,0,19.2,1.2,24.3,3.7c11.1,5.6,16.7,17,16.7,34.1c0,17.4-5.6,28.8-16.7,34
					c-5.3,2.5-13.4,3.7-24.3,3.7H106V898.6z M124.2,970.9c10.1,0,17.6-1.3,22.5-3.8c9.3-4.9,14-15.2,14-30.8c0-12.7-3.3-22-10-28
					c-3.2-2.8-7.3-4.7-12.5-5.7c-1.6-0.3-3.6-0.5-5.9-0.6c-2.3-0.1-5-0.2-8.1-0.2h-14.6v69.1H124.2z"/>
				<path fill="#6D6F71" d="M198.6,975.5c-7.9,0-14-2.8-18.4-8.4c-3.8-5.1-5.7-11.8-5.7-20.1c0-8.3,1.9-15,5.7-20.1
					c4.2-5.7,10.3-8.5,18.4-8.5c10.1,0,17,4.6,20.6,13.7v-12.5h3.3v54.5h-3.3v-11.8C215.7,971.1,208.8,975.5,198.6,975.5z
					 M182.7,964.7c3.6,5.2,9,7.9,16,7.9c7,0,12.3-2.6,15.9-7.9c3.1-4.5,4.7-10.4,4.7-17.7c0-7.3-1.6-13.2-4.7-17.7
					c-3.6-5.2-8.9-7.9-15.9-7.9c-7,0-12.3,2.6-15.9,7.9c-3.2,4.5-4.8,10.4-4.8,17.7C177.9,954.3,179.5,960.3,182.7,964.7z"/>
				<path fill="#6D6F71" d="M255.7,972.4c4.4,0,8-0.9,10.9-2.8c3.4-2.2,5.1-5.4,5.1-9.6c0-5-3.6-8.5-10.8-10.5
					c-0.2-0.1-0.5-0.2-1-0.3c-0.5-0.1-1.1-0.3-1.8-0.4c-8.9-2.3-14.6-4.5-17.2-6.5c-2.9-2.3-4.4-5.5-4.4-9.4c0-4.8,2-8.4,6.1-11
					c3.5-2.2,7.7-3.4,12.6-3.4c5,0,9.2,1.3,12.5,4c3.4,2.8,5.3,6.7,5.9,11.7h-3.3c-1.1-8.5-6.3-12.7-15.5-12.7
					c-3.9,0-7.1,0.8-9.9,2.5c-3.3,2-4.9,4.9-4.9,8.5c0,5.5,5.6,9.6,16.7,12.4c0.1,0.1,0.5,0.2,1,0.3c5.7,1.5,9.7,3,12,4.5
					c3.7,2.5,5.6,6,5.6,10.5c0,4.9-2.1,8.8-6.2,11.7c-3.7,2.4-8.1,3.7-13.2,3.7c-5.8,0-10.6-1.4-14.3-4.3c-3.9-3.1-6-7.5-6.5-13.2
					h3.3C240.1,967.6,245.9,972.4,255.7,972.4z"/>
				<path fill="#6D6F71" d="M316.2,898.6h17.3c11.1,0,19.2,1.2,24.3,3.7c11.1,5.6,16.7,17,16.7,34.1c0,17.4-5.6,28.8-16.7,34
					c-5.3,2.5-13.4,3.7-24.3,3.7h-17.3V898.6z M334.4,970.9c10.1,0,17.6-1.3,22.5-3.8c9.3-4.9,14-15.2,14-30.8c0-12.7-3.3-22-10-28
					c-3.2-2.8-7.3-4.7-12.5-5.7c-1.6-0.3-3.6-0.5-5.9-0.6c-2.3-0.1-5-0.2-8.1-0.2h-14.6v69.1H334.4z"/>
				<path fill="#6D6F71" d="M407.6,975.5c-7.8,0-13.7-2.9-17.7-8.6c-3.6-5.1-5.4-11.7-5.4-19.8c0-8.1,1.8-14.7,5.4-19.7
					c4.1-5.9,10-8.8,17.7-8.8c7.6,0,13.4,2.6,17.4,7.9c3.6,4.7,5.5,11,5.5,18.9v2h-42.5v0.8c0,6.7,1.6,12.3,4.7,16.8
					c3.6,5.2,8.5,7.8,14.9,7.8c8.8,0,14.8-4.1,18-12.4l2.7,1.5c-1.4,3.7-3.6,6.8-6.6,9.1C417.7,973.9,413,975.5,407.6,975.5z
					 M426.9,944.2c0-6.4-1.5-11.6-4.5-15.8c-3.4-4.7-8.1-7-14.2-7c-6.3,0-11.2,2.3-14.8,6.8c-3.2,4.1-4.9,9.5-5.4,16H426.9z"/>
				<path fill="#6D6F71" d="M460.8,972.4c4.4,0,8-0.9,10.9-2.8c3.4-2.2,5.1-5.4,5.1-9.6c0-5-3.6-8.5-10.8-10.5
					c-0.2-0.1-0.5-0.2-1-0.3c-0.5-0.1-1.1-0.3-1.8-0.4c-8.9-2.3-14.6-4.5-17.2-6.5c-2.9-2.3-4.4-5.5-4.4-9.4c0-4.8,2-8.4,6.1-11
					c3.5-2.2,7.7-3.4,12.6-3.4c5,0,9.2,1.3,12.5,4c3.4,2.8,5.3,6.7,5.9,11.7h-3.3c-1.1-8.5-6.3-12.7-15.5-12.7
					c-3.9,0-7.1,0.8-9.9,2.5c-3.3,2-4.9,4.9-4.9,8.5c0,5.5,5.6,9.6,16.7,12.4c0.1,0.1,0.5,0.2,1,0.3c5.7,1.5,9.7,3,12,4.5
					c3.7,2.5,5.6,6,5.6,10.5c0,4.9-2.1,8.8-6.2,11.7c-3.7,2.4-8.1,3.7-13.2,3.7c-5.8,0-10.6-1.4-14.3-4.3c-3.9-3.1-6-7.5-6.5-13.2
					h3.3C445.1,967.6,450.9,972.4,460.8,972.4z"/>
				<path fill="#6D6F71" d="M494.5,897.8c1.5,0,2.3,1.6,2.3,4.9c0,3.4-0.8,5-2.3,5c-1.5,0-2.2-1.7-2.2-5
					C492.3,899.4,493,897.8,494.5,897.8z M492.9,919.6h3.3v54.5h-3.3V919.6z"/>
				<path fill="#6D6F71" d="M532.4,975.6c-8,0-14.1-2.8-18.3-8.5c-3.7-5.2-5.6-11.9-5.6-20.1c0-8.3,1.9-15,5.7-20.1
					c4.2-5.7,10.3-8.5,18.4-8.5c4.7,0,8.9,1.1,12.6,3.4c3.7,2.2,6.4,5.6,8,10v-12.2h3.3v51.6c0,6.9-1.2,12-3.5,15.3
					c-4.3,6.3-11.6,9.5-21.8,9.5c-5.6,0-10.3-1.2-14-3.7c-4.1-2.8-6.3-6.9-6.4-12.4h3.1c0.3,4.7,2.3,8.1,6,10.3
					c3.2,1.9,7.2,2.8,12.1,2.8c9.1,0,15.4-3.1,18.8-9.2c1.6-2.9,2.4-8.1,2.4-15.8v-5.6C549.4,971.2,542.5,975.6,532.4,975.6z
					 M548.5,929.2c-3.6-5.2-8.9-7.9-15.9-7.9c-7,0-12.3,2.6-15.9,7.9c-3.2,4.5-4.8,10.4-4.8,17.7c0,7.3,1.6,13.3,4.7,17.7
					c3.6,5.2,9,7.9,16,7.9c7,0,12.3-2.6,15.9-7.9c3.1-4.5,4.7-10.4,4.7-17.7C553.2,939.7,551.6,933.8,548.5,929.2z"/>
				<path fill="#6D6F71" d="M571,919.6h3.4v8.9c3.4-6.7,9.6-10.1,18.4-10.1c12.5,0,18.7,6.5,18.7,19.5v36.1h-3.4V939
					c0-5.8-1-10.1-3.1-12.8c-2.5-3.2-6.5-4.7-12.1-4.7c-10.3,0-16.3,4.7-18,14c-0.1,1-0.3,2.4-0.4,3.9c-0.1,1.6-0.2,3.4-0.2,5.5
					v29.2H571V919.6z"/>
				<path fill="#6D6F71" d="M622.5,945.5h27.9v2.9h-27.9V945.5z"/>
				<path fill="#6D6F71" d="M663.1,898.6h3.6v42.5l41.9-42.5h4.5l-29.8,30.2l34.3,45.3h-4.2L681,931.2l-14.3,14.5v28.3h-3.6V898.6z"
					/>
				<path fill="#6D6F71" d="M724,927c4.2-5.7,10.3-8.6,18.3-8.6c8,0,14.1,2.9,18.4,8.6c3.8,5,5.7,11.7,5.7,20
					c0,8.3-1.9,14.9-5.7,20.1c-4.3,5.6-10.5,8.4-18.4,8.4c-8,0-14.1-2.8-18.3-8.4c-3.8-5.1-5.7-11.8-5.7-20.1
					C718.4,938.7,720.3,932.1,724,927z M726.4,964.7c3.6,5.2,8.9,7.9,15.9,7.9c6.9,0,12.2-2.6,16-7.9c3.2-4.5,4.7-10.4,4.7-17.7
					c0-7.3-1.6-13.2-4.7-17.7c-3.7-5.2-9-7.9-16-7.9c-7,0-12.3,2.6-15.9,7.9c-3.2,4.6-4.7,10.5-4.7,17.7
					C721.7,954.3,723.3,960.3,726.4,964.7z"/>
				<path fill="#6D6F71" d="M778.5,898.7h3.3v75.4h-3.3V898.7z"/>
				<path fill="#6D6F71" d="M796.9,898.7h3.3v75.4h-3.3V898.7z"/>
				<path fill="#6D6F71" d="M835.3,975.5c-7.8,0-13.7-2.9-17.7-8.6c-3.6-5.1-5.4-11.7-5.4-19.8c0-8.1,1.8-14.7,5.4-19.7
					c4.1-5.9,10-8.8,17.7-8.8c7.6,0,13.4,2.6,17.4,7.9c3.6,4.7,5.5,11,5.5,18.9v2h-42.5v0.8c0,6.7,1.6,12.3,4.7,16.8
					c3.6,5.2,8.5,7.8,14.9,7.8c8.8,0,14.8-4.1,18-12.4l2.7,1.5c-1.4,3.7-3.6,6.8-6.6,9.1C845.5,973.9,840.8,975.5,835.3,975.5z
					 M854.6,944.2c0-6.4-1.5-11.6-4.5-15.8c-3.4-4.7-8.1-7-14.2-7c-6.3,0-11.2,2.3-14.8,6.8c-3.2,4.1-4.9,9.5-5.4,16H854.6z"/>
				<path fill="#6D6F71" d="M869.9,898.7h3.4v52l31.4-31.1h4.1l-19.8,19.8l23,34.7h-3.8l-21.5-32.3l-13.3,12.9v19.4h-3.4V898.7z"/>
				<path fill="#6D6F71" d="M919,904.7v14.9h10.9v2.9H919v51.6h-3.4v-69.4H919z"/>
				<path fill="#6D6F71" d="M939.5,897.8c1.5,0,2.3,1.6,2.3,4.9c0,3.4-0.8,5-2.3,5c-1.5,0-2.2-1.7-2.2-5
					C937.3,899.4,938,897.8,939.5,897.8z M937.9,919.6h3.3v54.5h-3.3V919.6z"/>
				<path fill="#6D6F71" d="M949.6,919.6h3.5l18.7,50.6l19.4-50.6h3.5l-21,54.5h-3.8L949.6,919.6z"/>
			</g>
		</g>
	</g>
</g>
<g id="spacing" display="none">
	<rect x="-99.7" y="448" display="inline" fill="#C0D5B7" width="100" height="100"/>
	<rect x="1100.9" y="448" display="inline" fill="#C0D5B7" width="100" height="100"/>
	<rect x="500.6" y="-100" display="inline" fill="#C0D5B7" width="100" height="100"/>
	<rect x="500.6" y="995.9" display="inline" fill="#C0D5B7" width="100" height="100"/>
</g>
<g id="old_type" display="none">
	<g display="inline">
		<path fill="#6F6F6E" stroke="#6F6F6E" stroke-width="0.1" stroke-miterlimit="10" d="M-1824.4,762.2c0,9.4-2.9,17-8.7,22.9
			c-3.9,3.9-9.1,6.5-15.7,7.8c-3.8,0.8-9.7,1.1-17.9,1.1h-25.7v53.6h-5.5V731.5h31.6C-1838.4,731.5-1824.4,741.7-1824.4,762.2z
			 M-1892.4,736.3v52.8h22.1c13.5,0,22.4-1,27-3.1c8.8-3.9,13.2-12,13.2-24.4c0-14-7.2-22.1-21.5-24.4c-3.9-0.6-10.1-1-18.6-1
			H-1892.4z"/>
		<path fill="#6F6F6E" stroke="#6F6F6E" stroke-width="0.1" stroke-miterlimit="10" d="M-1800.2,731.5h5.3v116.1h-5.3V731.5z"/>
		<path fill="#6F6F6E" stroke="#6F6F6E" stroke-width="0.1" stroke-miterlimit="10" d="M-1737.2,788.2l-37.6-56.7h6.3l34.6,52.2
			l34.4-52.2h6l-37.1,56.5l39.4,59.6h-6.1l-36.8-54.7l-36.3,54.7h-6L-1737.2,788.2z"/>
		<path fill="#6F6F6E" stroke="#6F6F6E" stroke-width="0.1" stroke-miterlimit="10" d="M-1673.9,731.5h70.9v5.2h-65.4v48h51.8v5
			h-51.8v52.8h67v5.2h-72.5V731.5z"/>
		<path fill="#6F6F6E" stroke="#6F6F6E" stroke-width="0.1" stroke-miterlimit="10" d="M-1578.2,731.5h5.5v110.9h61.5v5.2h-67V731.5
			z"/>
		<path fill="#6F6F6E" stroke="#6F6F6E" stroke-width="0.1" stroke-miterlimit="10" d="M-1492.1,731.5h67.8v5.2h-62.3v48h49.6v5
			h-49.6v58h-5.5V731.5z"/>
		<path fill="#6F6F6E" stroke="#6F6F6E" stroke-width="0.1" stroke-miterlimit="10" d="M-1398.2,792.7v54.9h-5.5V731.5h38.6
			c12.8,0,22.2,1.8,28.3,5.5c7.6,4.7,11.5,13,11.5,24.9c0,14.7-7,24.3-21,28.6c9.8,1.9,15.2,8.6,16.3,20c0.1,0.5,0.2,5.5,0.2,15
			l0.2,22.1h-6.3v-26c0-3.1,0-5.6-0.1-7.5c-0.1-1.9-0.1-3.3-0.2-4.1c-1.2-7.1-4.2-11.9-9-14.4c-3.8-1.9-9.7-2.9-17.8-2.9H-1398.2z
			 M-1362.3,787.8c21,0,31.5-8.5,31.5-25.5c0-14.3-6.5-22.7-19.5-25c-1.5-0.2-3.5-0.4-6-0.6c-2.5-0.2-5.4-0.2-8.7-0.2h-33.1v51.3
			H-1362.3z"/>
		<path fill="#6F6F6E" stroke="#6F6F6E" stroke-width="0.1" stroke-miterlimit="10" d="M-1268.5,731.5h6.1l44.1,116.1h-5.3l-15-39.6
			h-54.1l-15.2,39.6h-5.3L-1268.5,731.5z M-1240.6,803.2l-24.9-65.4l-25.3,65.4H-1240.6z M-1276.7,700.2c2.4,0,3.6,2.5,3.6,7.6
			c0,5.2-1.2,7.8-3.6,7.8c-2.3,0-3.4-2.6-3.4-7.8C-1280.1,702.7-1279,700.2-1276.7,700.2z M-1251.7,700c2.4,0,3.6,2.5,3.6,7.4
			c0,5.2-1.2,7.7-3.6,7.7c-2.4,0-3.6-2.6-3.6-7.7C-1255.3,702.5-1254.1,700-1251.7,700z"/>
		<path fill="#6F6F6E" stroke="#6F6F6E" stroke-width="0.1" stroke-miterlimit="10" d="M-1197.9,731.5v73
			c0,27.2,12.2,40.8,36.5,40.8c12.4,0,21.7-3.8,27.9-11.3c5.7-7,8.6-16.8,8.6-29.5v-73h5.3v75.6c0,13.5-3.6,24-10.8,31.5
			c-7.4,7.6-17.8,11.5-31,11.5c-13.3,0-23.7-3.8-31-11.5c-7.2-7.3-10.8-17.8-10.8-31.5v-75.6H-1197.9z"/>
		<path fill="#6F6F6E" stroke="#6F6F6E" stroke-width="0.1" stroke-miterlimit="10" d="M-1094,731.5h5.5v110.9h61.5v5.2h-67V731.5z"
			/>
		<path fill="#6F6F6E" stroke="#6F6F6E" stroke-width="0.1" stroke-miterlimit="10" d="M-1007.9,731.5h70.9v5.2h-65.4v48h51.8v5
			h-51.8v52.8h67v5.2h-72.5V731.5z"/>
		<path fill="#6F6F6E" stroke="#6F6F6E" stroke-width="0.1" stroke-miterlimit="10" d="M-911.5,731.5h5.3v116.1h-5.3V731.5z"/>
		<path fill="#6F6F6E" stroke="#6F6F6E" stroke-width="0.1" stroke-miterlimit="10" d="M-880.5,731.5h5.5l72.8,106.9V731.5h5.3
			v116.1h-5.3l-73-106.7v106.7h-5.3V731.5z"/>
	</g>
	<g display="inline">
		<path fill="#6F6F6E" d="M-1804,900.9h17.6c11.3,0,19.6,1.3,24.7,3.7c11.3,5.7,17,17.3,17,34.8c0,17.8-5.7,29.3-17,34.7
			c-5.4,2.5-13.7,3.7-24.7,3.7h-17.6V900.9z M-1785.4,974.5c10.3,0,18-1.3,22.9-3.9c9.5-5,14.2-15.4,14.2-31.3
			c0-12.9-3.4-22.4-10.2-28.6c-3.2-2.9-7.5-4.8-12.7-5.8c-1.6-0.3-3.6-0.5-6-0.6c-2.4-0.1-5.1-0.2-8.2-0.2h-14.9v70.4H-1785.4z"/>
		<path fill="#6F6F6E" d="M-1709.6,979.1c-8.1,0-14.3-2.9-18.7-8.6c-3.8-5.2-5.8-12-5.8-20.4c0-8.5,1.9-15.3,5.8-20.4
			c4.3-5.8,10.5-8.7,18.7-8.7c10.3,0,17.3,4.6,21,13.9v-12.7h3.3v55.5h-3.3v-12C-1692.2,974.7-1699.2,979.1-1709.6,979.1z
			 M-1725.9,968.2c3.7,5.3,9.1,8,16.3,8c7.1,0,12.5-2.7,16.1-8c3.2-4.6,4.8-10.6,4.8-18.1c0-7.4-1.6-13.4-4.8-18.1
			c-3.6-5.3-9-8-16.1-8c-7.1,0-12.5,2.7-16.2,8c-3.3,4.6-4.9,10.6-4.9,18.1C-1730.7,957.6-1729.1,963.7-1725.9,968.2z"/>
		<path fill="#6F6F6E" d="M-1651.4,976c4.5,0,8.2-1,11.1-2.9c3.5-2.2,5.2-5.5,5.2-9.7c0-5.1-3.7-8.7-11-10.7c-0.2-0.1-0.6-0.2-1-0.3
			c-0.5-0.1-1.1-0.3-1.9-0.4c-9.1-2.4-14.9-4.6-17.5-6.6c-3-2.4-4.5-5.6-4.5-9.6c0-4.8,2.1-8.6,6.2-11.2c3.6-2.3,7.8-3.4,12.8-3.4
			c5.1,0,9.4,1.4,12.7,4.1c3.4,2.9,5.4,6.8,6,11.9h-3.3c-1.1-8.6-6.4-12.9-15.8-12.9c-3.9,0-7.3,0.9-10.1,2.6c-3.4,2.1-5,5-5,8.7
			c0,5.6,5.7,9.8,17,12.6c0.1,0.1,0.5,0.3,1.1,0.3c5.8,1.5,9.9,3,12.2,4.6c3.8,2.5,5.7,6.1,5.7,10.7c0,5-2.1,8.9-6.3,11.9
			c-3.8,2.5-8.3,3.7-13.5,3.7c-5.9,0-10.8-1.5-14.5-4.4c-3.9-3.1-6.1-7.6-6.6-13.5h3.3C-1667.4,971.1-1661.5,976-1651.4,976z"/>
		<path fill="#6F6F6E" d="M-1589.8,900.9h17.6c11.3,0,19.6,1.3,24.7,3.7c11.3,5.7,17,17.3,17,34.8c0,17.8-5.7,29.3-17,34.7
			c-5.4,2.5-13.7,3.7-24.7,3.7h-17.6V900.9z M-1571.3,974.5c10.3,0,18-1.3,22.9-3.9c9.5-5,14.2-15.4,14.2-31.3
			c0-12.9-3.4-22.4-10.2-28.6c-3.2-2.9-7.5-4.8-12.7-5.8c-1.6-0.3-3.6-0.5-6-0.6c-2.4-0.1-5.1-0.2-8.2-0.2h-14.9v70.4H-1571.3z"/>
		<path fill="#6F6F6E" d="M-1496.8,979.1c-7.9,0-13.9-2.9-18.1-8.8c-3.6-5.2-5.5-11.9-5.5-20.2c0-8.3,1.8-15,5.5-20.1
			c4.1-6,10.2-9,18.1-9c7.8,0,13.7,2.7,17.8,8c3.7,4.8,5.6,11.2,5.6,19.3v2h-43.3v0.9c0,6.8,1.6,12.6,4.8,17.1
			c3.6,5.3,8.7,7.9,15.2,7.9c9,0,15.1-4.2,18.3-12.6l2.8,1.5c-1.4,3.8-3.7,6.9-6.7,9.3C-1486.4,977.6-1491.2,979.1-1496.8,979.1z
			 M-1477.1,947.3c0-6.5-1.5-11.8-4.6-16c-3.4-4.8-8.2-7.2-14.4-7.2c-6.4,0-11.4,2.3-15.1,7c-3.2,4.2-5,9.6-5.5,16.3H-1477.1z"/>
		<path fill="#6F6F6E" d="M-1442.6,976c4.5,0,8.2-1,11.1-2.9c3.5-2.2,5.2-5.5,5.2-9.7c0-5.1-3.7-8.7-11-10.7c-0.2-0.1-0.6-0.2-1-0.3
			c-0.5-0.1-1.1-0.3-1.9-0.4c-9.1-2.4-14.9-4.6-17.5-6.6c-3-2.4-4.5-5.6-4.5-9.6c0-4.8,2.1-8.6,6.2-11.2c3.6-2.3,7.8-3.4,12.8-3.4
			c5.1,0,9.4,1.4,12.7,4.1c3.4,2.9,5.4,6.8,6,11.9h-3.3c-1.1-8.6-6.4-12.9-15.8-12.9c-3.9,0-7.3,0.9-10.1,2.6c-3.4,2.1-5,5-5,8.7
			c0,5.6,5.7,9.8,17,12.6c0.1,0.1,0.5,0.3,1.1,0.3c5.8,1.5,9.9,3,12.2,4.6c3.8,2.5,5.7,6.1,5.7,10.7c0,5-2.1,8.9-6.3,11.9
			c-3.8,2.5-8.3,3.7-13.5,3.7c-5.9,0-10.8-1.5-14.5-4.4c-3.9-3.1-6.1-7.6-6.6-13.5h3.3C-1458.5,971.1-1452.6,976-1442.6,976z"/>
		<path fill="#6F6F6E" d="M-1408.2,900c1.6,0,2.4,1.7,2.4,5c0,3.4-0.8,5.1-2.4,5.1c-1.5,0-2.2-1.7-2.2-5.1
			C-1410.5,901.7-1409.7,900-1408.2,900z M-1409.8,922.2h3.3v55.5h-3.3V922.2z"/>
		<path fill="#6F6F6E" d="M-1369.6,979.2c-8.1,0-14.3-2.9-18.6-8.7c-3.8-5.3-5.7-12.1-5.7-20.4c0-8.5,1.9-15.3,5.8-20.4
			c4.3-5.8,10.5-8.7,18.7-8.7c4.8,0,9.1,1.1,12.8,3.4s6.5,5.7,8.1,10.2v-12.4h3.3v52.5c0,7-1.2,12.2-3.5,15.6
			c-4.4,6.4-11.8,9.6-22.2,9.6c-5.7,0-10.4-1.2-14.2-3.7c-4.2-2.9-6.4-7.1-6.5-12.6h3.2c0.4,4.8,2.4,8.3,6.1,10.5
			c3.2,1.9,7.3,2.9,12.3,2.9c9.3,0,15.7-3.1,19.1-9.4c1.6-2.9,2.5-8.3,2.5-16v-5.7C-1352.3,974.8-1359.4,979.2-1369.6,979.2z
			 M-1353.3,932.1c-3.6-5.3-9-8-16.1-8c-7.1,0-12.5,2.7-16.2,8c-3.3,4.6-4.9,10.6-4.9,18.1c0,7.5,1.6,13.5,4.8,18.1
			c3.7,5.3,9.1,8,16.3,8c7.1,0,12.5-2.7,16.1-8c3.2-4.6,4.8-10.6,4.8-18.1C-1348.4,942.7-1350.1,936.7-1353.3,932.1z"/>
		<path fill="#6F6F6E" d="M-1330.3,922.2h3.4v9.1c3.5-6.8,9.7-10.3,18.7-10.3c12.7,0,19,6.6,19,19.9v36.8h-3.4V942
			c0-5.9-1.1-10.3-3.2-13c-2.5-3.2-6.6-4.8-12.3-4.8c-10.5,0-16.6,4.7-18.3,14.2c-0.1,1.1-0.3,2.4-0.4,4c-0.1,1.6-0.2,3.5-0.2,5.6
			v29.7h-3.4V922.2z"/>
		<path fill="#6F6F6E" d="M-1277.9,948.7h28.4v3h-28.4V948.7z"/>
		<path fill="#6F6F6E" d="M-1236.5,900.9h3.6v43.3l42.7-43.3h4.6l-30.4,30.8l35,46.1h-4.3l-33-43.6l-14.5,14.8v28.9h-3.6V900.9z"/>
		<path fill="#6F6F6E" d="M-1174.4,929.8c4.3-5.8,10.5-8.8,18.6-8.8c8.1,0,14.4,2.9,18.7,8.8c3.8,5.1,5.8,11.9,5.8,20.3
			c0,8.4-1.9,15.2-5.8,20.4c-4.4,5.7-10.7,8.6-18.7,8.6c-8.1,0-14.3-2.9-18.6-8.6c-3.8-5.2-5.8-12-5.8-20.4
			C-1180.2,941.7-1178.3,935-1174.4,929.8z M-1172,968.2c3.7,5.3,9.1,8,16.2,8c7.1,0,12.5-2.7,16.3-8c3.2-4.6,4.8-10.6,4.8-18.1
			c0-7.4-1.6-13.4-4.8-18.1c-3.8-5.3-9.2-8-16.3-8c-7.1,0-12.5,2.7-16.2,8c-3.2,4.6-4.8,10.7-4.8,18.1
			C-1176.8,957.6-1175.2,963.7-1172,968.2z"/>
		<path fill="#6F6F6E" d="M-1118.9,901h3.3v76.8h-3.3V901z"/>
		<path fill="#6F6F6E" d="M-1100.2,901h3.3v76.8h-3.3V901z"/>
		<path fill="#6F6F6E" d="M-1061.1,979.1c-7.9,0-13.9-2.9-18.1-8.8c-3.6-5.2-5.5-11.9-5.5-20.2c0-8.3,1.8-15,5.5-20.1
			c4.1-6,10.2-9,18.1-9c7.8,0,13.7,2.7,17.8,8c3.7,4.8,5.6,11.2,5.6,19.3v2h-43.3v0.9c0,6.8,1.6,12.6,4.8,17.1
			c3.6,5.3,8.7,7.9,15.2,7.9c9,0,15.1-4.2,18.3-12.6l2.8,1.5c-1.4,3.8-3.7,6.9-6.7,9.3C-1050.7,977.6-1055.5,979.1-1061.1,979.1z
			 M-1041.4,947.3c0-6.5-1.5-11.8-4.6-16c-3.4-4.8-8.2-7.2-14.4-7.2c-6.4,0-11.4,2.3-15.1,7c-3.2,4.2-5,9.6-5.5,16.3H-1041.4z"/>
		<path fill="#6F6F6E" d="M-1025.9,901h3.4v52.9l32-31.7h4.2l-20.2,20.2l23.4,35.3h-3.9l-21.9-32.9l-13.6,13.2v19.8h-3.4V901z"/>
		<path fill="#6F6F6E" d="M-967.8,907.1v15.2h11.1v3h-11.1v52.5h-3.4v-70.7H-967.8z"/>
		<path fill="#6F6F6E" d="M-947,900c1.6,0,2.4,1.7,2.4,5c0,3.4-0.8,5.1-2.4,5.1c-1.5,0-2.2-1.7-2.2-5.1
			C-949.2,901.7-948.5,900-947,900z M-948.6,922.2h3.3v55.5h-3.3V922.2z"/>
		<path fill="#6F6F6E" d="M-936.7,922.2h3.5l19,51.6l19.8-51.6h3.5l-21.4,55.5h-3.9L-936.7,922.2z"/>
	</g>
</g>
</svg>
