<?xml version="1.0" encoding="utf-8"?>
<!-- Generator: Adobe Illustrator 19.2.1, SVG Export Plug-In . SVG Version: 6.00 Build 0)  -->
<!DOCTYPE svg PUBLIC "-//W3C//DTD SVG 1.1//EN" "http://www.w3.org/Graphics/SVG/1.1/DTD/svg11.dtd">
<svg version="1.1" id="Layer_1" xmlns="http://www.w3.org/2000/svg" xmlns:xlink="http://www.w3.org/1999/xlink" x="0px" y="0px"
	 width="60px" height="210px" viewBox="0 0 60 210" enable-background="new 0 0 60 210" xml:space="preserve">
<path opacity="0.75" fill="#B5D2B4" d="M53,210H7c-3.8,0-7-3.1-7-7v-46c0-3.9,3.2-7,7-7h46c3.8,0,7,3.1,7,7v46
	C60,206.9,56.8,210,53,210z"/>
<path opacity="0" fill="#B5D2B4" d="M53,135H7c-3.8,0-7-3.1-7-7V82c0-3.8,3.2-7,7-7h46c3.8,0,7,3.2,7,7v46C60,131.9,56.8,135,53,135
	z"/>
<path opacity="0" fill="#B5D2B4" d="M53,60H7c-3.8,0-7-3.2-7-7V7c0-3.8,3.2-7,7-7h46c3.8,0,7,3.2,7,7v46C60,56.8,56.8,60,53,60z"/>
</svg>
